<svg xmlns="http://www.w3.org/2000/svg" width="250" height="150">

 <g>
  <title>background</title>
  <rect fill="none" id="canvas_background" height="152" width="252" y="-1" x="-1"/>
 </g>
 <g>
  <title>Layer 1</title>
  <polygon id="svg_1" fill="#BDBDBD" points="39.959991455078125,39.329986572265625 116.95999145507812,26.79998779296875 116.95999145507812,99.70001220703125 43.79998779296875,95.8699951171875 39.959991455078125,39.329986572265625 "/>
  <polygon id="svg_2" opacity="0.05" points="39.959991455078125,39.329986572265625 116.95999145507812,26.79998779296875 116.95999145507812,99.70001220703125 43.79998779296875,95.8699951171875 39.959991455078125,39.329986572265625 "/>
  <polygon id="svg_3" fill="#BDBDBD" points="116.95999145507812,26.79998779296875 209.29998779296875,33.709991455078125 204.19000244140625,97.14999389648438 116.95999145507812,99.70001220703125 116.95999145507812,26.79998779296875 "/>
  <polygon id="svg_4" opacity="0.1" points="116.95999145507812,26.79998779296875 209.29998779296875,33.709991455078125 204.19000244140625,97.14999389648438 116.95999145507812,99.70001220703125 116.95999145507812,26.79998779296875 "/>
  <polygon id="svg_5" fill="#BDBDBD" points="145.35000610351562,4.549987316131592 116.95999145507812,26.79998779296875 209.29998779296875,33.709991455078125 224.3900146484375,10.94000244140625 145.35000610351562,4.549987316131592 "/>
  <polygon id="svg_6" fill="#BDBDBD" points="12.079986572265625,15.029998779296875 81.39999389648438,6.589996337890625 116.95999145507812,26.79998779296875 39.959991455078125,39.329986572265625 12.079986572265625,15.029998779296875 "/>
  <polygon id="svg_7" fill="#BDBDBD" points="133.83999633789062,45.730010986328125 133.83999633789062,145.39999389648438 97.76998901367188,141.70001220703125 82.07998657226562,140.10000610351562 77.29998779296875,139.60000610351562 61.6199951171875,137.989990234375 39.959991455078125,135.76998901367188 39.959991455078125,39.329986572265625 116.95001220703125,44.57000732421875 133.83999633789062,45.730010986328125 "/>
  <polygon id="svg_8" fill="#BDBDBD" points="209.29998779296875,33.709991455078125 209.29998779296875,130.91000366210938 180.3900146484375,136.45999145507812 166.32998657226562,139.16000366210938 133.83999633789062,145.39999389648438 133.83999633789062,45.730010986328125 209.29998779296875,33.709991455078125 "/>
  <polygon id="svg_9" fill="#BDBDBD" points="12.079986572265625,60.30999755859375 39.959991455078125,39.329986572265625 133.83999633789062,45.730010986328125 120.01998901367188,69.010009765625 12.079986572265625,60.30999755859375 "/>
  <polygon id="svg_10" opacity="0.1" fill="#fff" points="12.079986572265625,60.30999755859375 39.959991455078125,39.329986572265625 133.83999633789062,45.730010986328125 120.01998901367188,69.010009765625 12.079986572265625,60.30999755859375 "/>
  <polygon id="svg_11" fill="#BDBDBD" points="209.29998779296875,33.709991455078125 133.83999633789062,45.730010986328125 158.39999389648438,67.73001098632812 239.22998046875,54.170013427734375 209.29998779296875,33.709991455078125 "/>
  <polygon id="svg_12" opacity="0.1" fill="#fff" points="209.29998779296875,33.709991455078125 133.83999633789062,45.730010986328125 158.39999389648438,67.73001098632812 239.22998046875,54.170013427734375 209.29998779296875,33.709991455078125 "/>
  <polygon id="svg_13" opacity="0.1" fill="#fff" points="180.3900146484375,136.45999145507812 166.32998657226562,139.16000366210938 166.32998657226562,118.3900146484375 179.5,115.07000732421875 180.3900146484375,136.45999145507812 "/>
  <polygon id="svg_14" opacity="0.1" fill="#fff" points="97.76998901367188,127.95999145507812 97.76998901367188,141.70001220703125 82.07998657226562,140.10000610351562 82.07998657226562,127.95999145507812 97.76998901367188,127.95999145507812 "/>
 </g>
</svg>